<svg fill="none" viewBox="0 0 80 22"><g clip-path="url(#clip0_3802_17806)"><path fill="#FC0303" d="M11.13 6.56h3.5c.667 0 .825-.16.827-.832.005-1.349 0-2.7 0-4.048 0-.537 0-.537.464-.289 3.7 2 5.952 6.476 5.358 10.641-.659 4.61-3.766 8.048-8.28 9.121-1.853.441-3.696.33-5.52-.226-.45-.169-.412-.069-.412-.556 0-1.282.018-2.565 0-3.848-.006-.357.108-.445.45-.443 1.95.015 3.902.009 5.848.008.76 0 .934-.176.934-.945v-4.147c0-.621-.176-.8-.807-.8-1.982 0-3.965-.011-5.947.006-.371 0-.487-.1-.476-.476a54 54 0 0 0 0-2.747c-.007-.324.082-.432.418-.427 1.215.02 2.426.008 3.643.009"/><path fill="#FC0303" d="M5.901 20.271A10.54 10.54 0 0 1 1.97 16.89C-2.449 10.615.937 1.89 8.436.243c1.8-.394 3.67-.308 5.426.25.469.16.469.16.45.58-.058 1.265-.03 2.532 0 3.801.01.435-.144.518-.543.514-2.232-.018-4.464-.01-6.696-.01-1.108 0-1.17.062-1.17 1.144v3.947c0 .753.141.893.913.894 1.932 0 3.865.008 5.801-.008.378 0 .525.079.508.494-.036.848-.03 1.7 0 2.548.013.39-.1.513-.5.509-1.915-.021-3.832-.01-5.747-.01-.848 0-.973.124-.974.988z"/><path fill="#393939" d="M51.393 8.66a4.3 4.3 0 0 1 3.161-.951c.69.058 1.315.3 1.73.865.217.3.331.243.566.052 1.08-.881 2.319-1.135 3.656-.8a2.165 2.165 0 0 1 1.69 2.149c.017 2.148 0 4.3.01 6.446 0 .4-.165.584-.562.58a48 48 0 0 0-1.249 0c-.414.006-.6-.169-.595-.6.013-1.833.006-3.666 0-5.502 0-.913-.314-1.194-1.23-1.088a3 3 0 0 0-.633.141c-.983.335-1.118.53-1.118 1.564v4.701c0 .727-.057.781-.806.783h-.95c-.549-.009-.669-.128-.67-.685q-.006-2.701 0-5.396c0-.953-.3-1.219-1.253-1.1a3 3 0 0 0-.627.148c-.963.349-1.083.527-1.083 1.544 0 1.615-.015 3.232.005 4.847.006.482-.178.667-.646.645-.4-.018-.8 0-1.2 0-.359 0-.558-.145-.557-.536q.008-4.072 0-8.145c0-.367.186-.5.531-.5.3.008.6 0 .9 0 .805 0 .805 0 .93.837m17.568 7.517c-.875.643-1.786.986-2.829.954-1.566-.05-2.473-.96-2.472-2.516 0-.4-.032-.8.073-1.194.273-1.018 1.2-1.686 2.422-1.723a38 38 0 0 1 2.301 0c.335.009.454-.03.454-.435v-.55c0-.9-.286-1.183-1.2-1.193a4 4 0 0 0-.8.042c-.457.086-.758.344-.729.856.026.478-.192.657-.662.619a9 9 0 0 0-1.1 0c-.367.016-.5-.156-.511-.506-.06-1.312.55-2.229 1.808-2.594a6.9 6.9 0 0 1 3.795 0c1.17.326 1.76 1.131 1.768 2.356.012 2.015.007 4.032 0 6.047 0 .567-.1.66-.673.665h-.75c-.739 0-.762-.02-.895-.828m-.075-2.221c0-.538-.133-.59-.574-.565-.512.03-1.028 0-1.542.012-.549.017-.745.261-.752.886-.007.624.178.869.722.913.64.053 1.2-.191 1.745-.488.302-.164.401-.3.401-.758M26.66 10.719V5.225c0-.67.046-.712.7-.713 2.082 0 4.164.012 6.245-.01.474 0 .684.14.637.624-.023.248 0 .5 0 .75 0 .649-.052.7-.726.7-1.265 0-2.531.026-3.796-.013-.5-.015-.59.145-.59.615v1.9c-.014.34.074.461.436.453 1.116-.023 2.232.007 3.347-.016.465-.01.634.176.606.62-.02.316-.012.634 0 .95.012.383-.165.534-.545.53-1.132-.011-2.264.01-3.4-.011-.346-.006-.452.087-.447.442.02 1.431.01 2.863.007 4.295 0 .581-.082.656-.668.661h-1.1c-.614 0-.7-.084-.7-.686a1536 1536 0 0 1-.006-5.597m15.217-2.085c.62-.412 1.26-.746 1.99-.873.494-.09.998-.1 1.493-.027 1.265.2 2.029 1.093 2.037 2.384.013 2.082 0 4.164.01 6.246 0 .446-.161.65-.61.638-.4-.01-.8-.007-1.2 0-.435.007-.622-.173-.618-.632.018-1.814.007-3.63.006-5.445 0-.947-.314-1.22-1.26-1.11-.593.07-1.108.33-1.61.638-.236.144-.213.347-.213.562v5.246c0 .66-.082.738-.749.74h-1.1c-.367 0-.554-.139-.553-.534q.009-4.072 0-8.143c0-.371.184-.5.526-.5h.85c.84-.002.84-.002 1.001.81M76.403 7.7a4.5 4.5 0 0 1 2.2.43 2.3 2.3 0 0 1 1.27 2.4c-.034.264-.155.387-.421.383-.433-.006-.867-.013-1.3 0-.354.012-.5-.153-.455-.484.1-.66-.326-1.01-1.039-1.017a5 5 0 0 0-.9.03c-.354.064-.66.213-.692.66s.137.73.563.879c.879.3 1.755.618 2.631.932.426.152.833.34 1.166.658a1.7 1.7 0 0 1 .569 1.281c.019 2.13-.561 2.852-2.694 3.201-1.115.182-2.227.114-3.28-.349-.968-.426-1.433-1.222-1.38-2.268.018-.367.144-.556.538-.536s.8.012 1.2 0c.342-.007.468.162.489.487.043.7.147.808.822.96.49.104 1 .085 1.481-.053.354-.093.577-.314.612-.7.038-.4-.118-.682-.5-.824-.872-.326-1.743-.655-2.62-.965-1.745-.61-2.004-1.803-1.71-3.274.13-.652.59-1.1 1.19-1.4.704-.347 1.455-.451 2.26-.43m-38.586 4.754c0 1.3-.015 2.6.007 3.901.008.475-.165.674-.639.652-.415-.02-.832 0-1.25-.006-.34 0-.52-.168-.52-.523V8.337c0-.352.17-.516.523-.512.432.006.866.015 1.3 0s.593.165.588.592c-.014 1.35 0 2.7 0 4.046zm.003-6.904c0 1.428.12 1.248-1.244 1.256-1.255.007-1.162.09-1.162-1.2 0-1.507-.071-1.3 1.257-1.3 1.253-.007 1.147-.159 1.148 1.244"/></g><defs><clipPath id="clip0_3802_17806"><path fill="#fff" d="M0 0h79.995v21.425H0z"/></clipPath></defs></svg>